<svg xmlns="http://www.w3.org/2000/svg" viewBox="112.5 99.78 150 88" width="32" height="32">
    <path fill="#000000"
        d="M 113.050781 156.78125 C 113.160156 156.710938 115.855469 155.019531 120.265625 153.0625 C 124.128906 151.347656 130.042969 149.121094 136.730469 148.019531 C 134.34375 141.671875 133.308594 135.433594 132.863281 131.230469 C 132.355469 126.433594 132.472656 123.25 132.476562 123.117188 C 132.496094 122.671875 132.851562 122.3125 133.296875 122.296875 C 133.515625 122.289062 138.710938 122.097656 145.835938 123.285156 C 150.023438 123.984375 154.003906 125.015625 157.664062 126.355469 C 161.769531 127.859375 165.484375 129.75 168.722656 131.992188 C 169.429688 128.117188 170.71875 124.152344 172.558594 120.183594 C 174.199219 116.648438 176.285156 113.101562 178.75 109.644531 C 182.953125 103.765625 186.757812 100.222656 186.917969 100.078125 C 187.246094 99.773438 187.75 99.773438 188.078125 100.078125 C 188.238281 100.222656 192.046875 103.765625 196.246094 109.644531 C 198.714844 113.101562 200.796875 116.648438 202.4375 120.183594 C 204.28125 124.152344 205.566406 128.117188 206.273438 131.992188 C 209.515625 129.75 213.226562 127.859375 217.332031 126.355469 C 220.992188 125.019531 224.972656 123.984375 229.160156 123.285156 C 236.285156 122.097656 241.480469 122.289062 241.699219 122.296875 C 242.144531 122.3125 242.5 122.671875 242.519531 123.117188 C 242.523438 123.25 242.640625 126.429688 242.132812 131.230469 C 241.683594 135.433594 240.652344 141.671875 238.265625 148.019531 C 244.953125 149.125 250.867188 151.347656 254.730469 153.0625 C 259.140625 155.019531 261.835938 156.714844 261.945312 156.78125 C 262.324219 157.023438 262.457031 157.507812 262.246094 157.902344 C 262.125 158.136719 259.195312 163.664062 253.699219 169.945312 C 250.46875 173.640625 247.019531 176.820312 243.449219 179.398438 C 238.96875 182.632812 234.28125 184.917969 229.519531 186.195312 C 226.203125 187.082031 222.671875 187.527344 218.976562 187.527344 C 217.371094 187.527344 215.730469 187.445312 214.0625 187.273438 C 209.683594 186.828125 205.105469 185.800781 200.460938 184.214844 C 193.777344 181.9375 188.960938 179.214844 187.496094 178.339844 C 186.035156 179.210938 181.214844 181.9375 174.53125 184.214844 C 169.886719 185.800781 165.308594 186.828125 160.929688 187.273438 C 159.265625 187.445312 157.625 187.527344 156.015625 187.527344 C 152.320312 187.527344 148.789062 187.082031 145.472656 186.195312 C 140.710938 184.917969 136.023438 182.632812 131.542969 179.398438 C 127.972656 176.820312 124.527344 173.640625 121.292969 169.945312 C 115.800781 163.664062 112.871094 158.136719 112.75 157.902344 C 112.542969 157.507812 112.671875 157.023438 113.050781 156.78125 Z"
        fill-rule="nonzero" />
</svg>